<?xml version="1.0" encoding="UTF-8" standalone="no"?>
<svg width="1100" height="1400" xmlns="http://www.w3.org/2000/svg">
  <!-- 背景 -->
  <rect width="1100" height="1400" fill="#f8f9fa" />
  
  <!-- タイトル -->
  <text x="550" y="30" font-family="Arial" font-size="24" text-anchor="middle" font-weight="bold">ConnectEn - 画面遷移図</text>
  <text x="550" y="60" font-family="Arial" font-size="24" text-anchor="middle" font-weight="bold">ConnectEn - Screen Flow Diagram</text>
  
  <!-- ログイン関連 -->
  <rect x="450" y="80" width="200" height="80" rx="10" ry="10" fill="#FFE0B2" stroke="#FB8C00" stroke-width="2" />
  <text x="550" y="115" font-family="Arial" font-size="16" text-anchor="middle" font-weight="bold">ログイン画面</text>
  <text x="550" y="140" font-family="Arial" font-size="16" text-anchor="middle" font-weight="bold">Login Screen</text>
  
  <rect x="150" y="80" width="200" height="80" rx="10" ry="10" fill="#FFCCBC" stroke="#FF5722" stroke-width="2" />
  <text x="250" y="115" font-family="Arial" font-size="16" text-anchor="middle" font-weight="bold">パスワードリセット</text>
  <text x="250" y="140" font-family="Arial" font-size="16" text-anchor="middle" font-weight="bold">Password Reset</text>
  
  <rect x="750" y="80" width="200" height="80" rx="10" ry="10" fill="#FFCCBC" stroke="#FF5722" stroke-width="2" />
  <text x="850" y="115" font-family="Arial" font-size="16" text-anchor="middle" font-weight="bold">ユーザー登録</text>
  <text x="850" y="140" font-family="Arial" font-size="16" text-anchor="middle" font-weight="bold">User Registration</text>
  
  <!-- ダッシュボード -->
  <rect x="450" y="240" width="200" height="80" rx="10" ry="10" fill="#B3E5FC" stroke="#0288D1" stroke-width="2" />
  <text x="550" y="275" font-family="Arial" font-size="16" text-anchor="middle" font-weight="bold">ダッシュボード</text>
  <text x="550" y="300" font-family="Arial" font-size="16" text-anchor="middle" font-weight="bold">Dashboard</text>
  
  <!-- 会員管理 -->
  <rect x="150" y="400" width="200" height="80" rx="10" ry="10" fill="#C8E6C9" stroke="#388E3C" stroke-width="2" />
  <text x="250" y="435" font-family="Arial" font-size="16" text-anchor="middle" font-weight="bold">会員管理</text>
  <text x="250" y="460" font-family="Arial" font-size="16" text-anchor="middle" font-weight="bold">Member Management</text>
  
  <rect x="50" y="520" width="150" height="60" rx="10" ry="10" fill="#E8F5E9" stroke="#388E3C" stroke-width="1" />
  <text x="125" y="545" font-family="Arial" font-size="14" text-anchor="middle">会員検索/一覧</text>
  <text x="125" y="565" font-family="Arial" font-size="14" text-anchor="middle">Member Search/List</text>
  
  <rect x="250" y="520" width="150" height="60" rx="10" ry="10" fill="#E8F5E9" stroke="#388E3C" stroke-width="1" />
  <text x="325" y="545" font-family="Arial" font-size="14" text-anchor="middle">会員詳細/編集</text>
  <text x="325" y="565" font-family="Arial" font-size="14" text-anchor="middle">Member Detail/Edit</text>
  
  <rect x="50" y="620" width="150" height="60" rx="10" ry="10" fill="#E8F5E9" stroke="#388E3C" stroke-width="1" />
  <text x="125" y="645" font-family="Arial" font-size="14" text-anchor="middle">会員カード発行</text>
  <text x="125" y="665" font-family="Arial" font-size="14" text-anchor="middle">Card Issuance</text>
  
  <rect x="250" y="620" width="150" height="60" rx="10" ry="10" fill="#E8F5E9" stroke="#388E3C" stroke-width="1" />
  <text x="325" y="645" font-family="Arial" font-size="14" text-anchor="middle">出席履歴</text>
  <text x="325" y="665" font-family="Arial" font-size="14" text-anchor="middle">Attendance History</text>
  
  <!-- スケジュール管理 -->
  <rect x="450" y="400" width="200" height="80" rx="10" ry="10" fill="#BBDEFB" stroke="#1976D2" stroke-width="2" />
  <text x="550" y="435" font-family="Arial" font-size="16" text-anchor="middle" font-weight="bold">スケジュール管理</text>
  <text x="550" y="460" font-family="Arial" font-size="16" text-anchor="middle" font-weight="bold">Schedule Management</text>
  
  <rect x="350" y="520" width="150" height="60" rx="10" ry="10" fill="#E3F2FD" stroke="#1976D2" stroke-width="1" />
  <text x="425" y="545" font-family="Arial" font-size="14" text-anchor="middle">レッスン一覧</text>
  <text x="425" y="565" font-family="Arial" font-size="14" text-anchor="middle">Lesson List</text>
  
  <rect x="550" y="520" width="150" height="60" rx="10" ry="10" fill="#E3F2FD" stroke="#1976D2" stroke-width="1" />
  <text x="625" y="545" font-family="Arial" font-size="14" text-anchor="middle">スタジオ予約</text>
  <text x="625" y="565" font-family="Arial" font-size="14" text-anchor="middle">Studio Reservation</text>
  
  <rect x="350" y="620" width="150" height="60" rx="10" ry="10" fill="#E3F2FD" stroke="#1976D2" stroke-width="1" />
  <text x="425" y="645" font-family="Arial" font-size="14" text-anchor="middle">インストラクター</text>
  <text x="425" y="665" font-family="Arial" font-size="14" text-anchor="middle">Instructor Schedule</text>
  
  <rect x="550" y="620" width="150" height="60" rx="10" ry="10" fill="#E3F2FD" stroke="#1976D2" stroke-width="1" />
  <text x="625" y="645" font-family="Arial" font-size="14" text-anchor="middle">代行情報</text>
  <text x="625" y="665" font-family="Arial" font-size="14" text-anchor="middle">Substitute Info</text>
  
  <!-- 決済・会計 -->
  <rect x="750" y="400" width="200" height="80" rx="10" ry="10" fill="#E1BEE7" stroke="#7B1FA2" stroke-width="2" />
  <text x="850" y="435" font-family="Arial" font-size="16" text-anchor="middle" font-weight="bold">決済・会計</text>
  <text x="850" y="460" font-family="Arial" font-size="16" text-anchor="middle" font-weight="bold">Payment &amp; Accounting</text>
  
  <rect x="650" y="520" width="150" height="60" rx="10" ry="10" fill="#F3E5F5" stroke="#7B1FA2" stroke-width="1" />
  <text x="725" y="545" font-family="Arial" font-size="14" text-anchor="middle">会費請求管理</text>
  <text x="725" y="565" font-family="Arial" font-size="14" text-anchor="middle">Fee Billing</text>
  
  <rect x="850" y="520" width="150" height="60" rx="10" ry="10" fill="#F3E5F5" stroke="#7B1FA2" stroke-width="1" />
  <text x="925" y="545" font-family="Arial" font-size="14" text-anchor="middle">POS操作</text>
  <text x="925" y="565" font-family="Arial" font-size="14" text-anchor="middle">POS Operation</text>
  
  <rect x="650" y="620" width="150" height="60" rx="10" ry="10" fill="#F3E5F5" stroke="#7B1FA2" stroke-width="1" />
  <text x="725" y="645" font-family="Arial" font-size="14" text-anchor="middle">金種表</text>
  <text x="725" y="665" font-family="Arial" font-size="14" text-anchor="middle">Cash Breakdown</text>
  
  <rect x="850" y="620" width="150" height="60" rx="10" ry="10" fill="#F3E5F5" stroke="#7B1FA2" stroke-width="1" />
  <text x="925" y="645" font-family="Arial" font-size="14" text-anchor="middle">売上集計</text>
  <text x="925" y="665" font-family="Arial" font-size="14" text-anchor="middle">Sales Summary</text>
  
  <!-- マーケティング -->
  <rect x="150" y="740" width="200" height="80" rx="10" ry="10" fill="#FFECB3" stroke="#FFA000" stroke-width="2" />
  <text x="250" y="775" font-family="Arial" font-size="16" text-anchor="middle" font-weight="bold">マーケティング</text>
  <text x="250" y="800" font-family="Arial" font-size="16" text-anchor="middle" font-weight="bold">Marketing</text>
  
  <rect x="50" y="860" width="150" height="60" rx="10" ry="10" fill="#FFF8E1" stroke="#FFA000" stroke-width="1" />
  <text x="125" y="885" font-family="Arial" font-size="14" text-anchor="middle">メール配信</text>
  <text x="125" y="905" font-family="Arial" font-size="14" text-anchor="middle">Email Distribution</text>
  
  <rect x="250" y="860" width="150" height="60" rx="10" ry="10" fill="#FFF8E1" stroke="#FFA000" stroke-width="1" />
  <text x="325" y="885" font-family="Arial" font-size="14" text-anchor="middle">お知らせ管理</text>
  <text x="325" y="905" font-family="Arial" font-size="14" text-anchor="middle">Announcement Mgmt</text>
  
  <rect x="50" y="960" width="150" height="60" rx="10" ry="10" fill="#FFF8E1" stroke="#FFA000" stroke-width="1" />
  <text x="125" y="985" font-family="Arial" font-size="14" text-anchor="middle">キャンペーン管理</text>
  <text x="125" y="1005" font-family="Arial" font-size="14" text-anchor="middle">Campaign Management</text>
  
  <rect x="250" y="960" width="150" height="60" rx="10" ry="10" fill="#FFF8E1" stroke="#FFA000" stroke-width="1" />
  <text x="325" y="985" font-family="Arial" font-size="14" text-anchor="middle">SNS連携</text>
  <text x="325" y="1005" font-family="Arial" font-size="14" text-anchor="middle">Social Media Integration</text>
  
  <!-- レポート・分析 -->
  <rect x="450" y="740" width="200" height="80" rx="10" ry="10" fill="#B2EBF2" stroke="#0097A7" stroke-width="2" />
  <text x="550" y="775" font-family="Arial" font-size="16" text-anchor="middle" font-weight="bold">レポート・分析</text>
  <text x="550" y="800" font-family="Arial" font-size="16" text-anchor="middle" font-weight="bold">Reports &amp; Analysis</text>
  
  <rect x="350" y="860" width="150" height="60" rx="10" ry="10" fill="#E0F7FA" stroke="#0097A7" stroke-width="1" />
  <text x="425" y="885" font-family="Arial" font-size="14" text-anchor="middle">売上分析</text>
  <text x="425" y="905" font-family="Arial" font-size="14" text-anchor="middle">Sales Analysis</text>
  
  <rect x="550" y="860" width="150" height="60" rx="10" ry="10" fill="#E0F7FA" stroke="#0097A7" stroke-width="1" />
  <text x="625" y="885" font-family="Arial" font-size="14" text-anchor="middle">スタジオ稼働分析</text>
  <text x="625" y="905" font-family="Arial" font-size="14" text-anchor="middle">Studio Operation Analysis</text>
  
  <rect x="350" y="960" width="150" height="60" rx="10" ry="10" fill="#E0F7FA" stroke="#0097A7" stroke-width="1" />
  <text x="425" y="985" font-family="Arial" font-size="14" text-anchor="middle">会員動向分析</text>
  <text x="425" y="1005" font-family="Arial" font-size="14" text-anchor="middle">Member Trend Analysis</text>
  
  <rect x="550" y="960" width="150" height="60" rx="10" ry="10" fill="#E0F7FA" stroke="#0097A7" stroke-width="1" />
  <text x="625" y="985" font-family="Arial" font-size="14" text-anchor="middle">売上予測</text>
  <text x="625" y="1005" font-family="Arial" font-size="14" text-anchor="middle">Sales Forecast</text>
  
  <!-- 物品・在庫管理 -->
  <rect x="750" y="740" width="200" height="80" rx="10" ry="10" fill="#FFE0B2" stroke="#E64A19" stroke-width="2" />
  <text x="850" y="775" font-family="Arial" font-size="16" text-anchor="middle" font-weight="bold">物品・在庫管理</text>
  <text x="850" y="800" font-family="Arial" font-size="16" text-anchor="middle" font-weight="bold">Inventory Management</text>
  
  <rect x="650" y="860" width="150" height="60" rx="10" ry="10" fill="#FFF3E0" stroke="#E64A19" stroke-width="1" />
  <text x="725" y="885" font-family="Arial" font-size="14" text-anchor="middle">物品管理</text>
  <text x="725" y="905" font-family="Arial" font-size="14" text-anchor="middle">Supply Management</text>
  
  <rect x="850" y="860" width="150" height="60" rx="10" ry="10" fill="#FFF3E0" stroke="#E64A19" stroke-width="1" />
  <text x="925" y="885" font-family="Arial" font-size="14" text-anchor="middle">発注管理</text>
  <text x="925" y="905" font-family="Arial" font-size="14" text-anchor="middle">Order Management</text>
  
  <rect x="750" y="960" width="150" height="60" rx="10" ry="10" fill="#FFF3E0" stroke="#E64A19" stroke-width="1" />
  <text x="825" y="985" font-family="Arial" font-size="14" text-anchor="middle">在庫確認</text>
  <text x="825" y="1005" font-family="Arial" font-size="14" text-anchor="middle">Inventory Check</text>
  
  <!-- システム設定 -->
  <rect x="450" y="1080" width="200" height="80" rx="10" ry="10" fill="#D1C4E9" stroke="#512DA8" stroke-width="2" />
  <text x="550" y="1115" font-family="Arial" font-size="16" text-anchor="middle" font-weight="bold">システム設定</text>
  <text x="550" y="1140" font-family="Arial" font-size="16" text-anchor="middle" font-weight="bold">System Settings</text>
  
  <rect x="350" y="1200" width="150" height="60" rx="10" ry="10" fill="#EDE7F6" stroke="#512DA8" stroke-width="1" />
  <text x="425" y="1225" font-family="Arial" font-size="14" text-anchor="middle">ユーザー権限管理</text>
  <text x="425" y="1245" font-family="Arial" font-size="14" text-anchor="middle">User Permissions</text>
  
  <rect x="550" y="1200" width="150" height="60" rx="10" ry="10" fill="#EDE7F6" stroke="#512DA8" stroke-width="1" />
  <text x="625" y="1225" font-family="Arial" font-size="14" text-anchor="middle">マスタ設定</text>
  <text x="625" y="1245" font-family="Arial" font-size="14" text-anchor="middle">Master Settings</text>
  
  <rect x="450" y="1300" width="150" height="60" rx="10" ry="10" fill="#EDE7F6" stroke="#512DA8" stroke-width="1" />
  <text x="525" y="1325" font-family="Arial" font-size="14" text-anchor="middle">連携サービス設定</text>
  <text x="525" y="1345" font-family="Arial" font-size="14" text-anchor="middle">Integration Settings</text>
  
  <!-- 接続線：ログイン関連 -->
  <line x1="350" y1="120" x2="450" y2="120" stroke="#888888" stroke-width="2" />
  <line x1="650" y1="120" x2="750" y2="120" stroke="#888888" stroke-width="2" />
  
  <!-- 接続線：ログイン→ダッシュボード -->
  <line x1="550" y1="160" x2="550" y2="240" stroke="#888888" stroke-width="2" />
  
  <!-- 接続線：ダッシュボード→各メインメニュー -->
  <line x1="550" y1="320" x2="550" y2="360" stroke="#888888" stroke-width="2" />
  <line x1="550" y1="360" x2="250" y2="360" stroke="#888888" stroke-width="2" />
  <line x1="250" y1="360" x2="250" y2="400" stroke="#888888" stroke-width="2" />
  
  <line x1="550" y1="360" x2="550" y2="400" stroke="#888888" stroke-width="2" />
  
  <line x1="550" y1="360" x2="850" y2="360" stroke="#888888" stroke-width="2" />
  <line x1="850" y1="360" x2="850" y2="400" stroke="#888888" stroke-width="2" />
  
  <line x1="250" y1="700" x2="250" y2="740" stroke="#888888" stroke-width="2" />
  <line x1="550" y1="700" x2="550" y2="740" stroke="#888888" stroke-width="2" />
  <line x1="850" y1="700" x2="850" y2="740" stroke="#888888" stroke-width="2" />
  
  <line x1="550" y1="1040" x2="550" y2="1080" stroke="#888888" stroke-width="2" />
  
  <!-- 接続線：会員管理→サブメニュー -->
  <line x1="250" y1="480" x2="250" y2="500" stroke="#888888" stroke-width="2" />
  <line x1="250" y1="500" x2="125" y2="500" stroke="#888888" stroke-width="2" />
  <line x1="125" y1="500" x2="125" y2="520" stroke="#888888" stroke-width="2" />
  
  <line x1="250" y1="500" x2="325" y2="500" stroke="#888888" stroke-width="2" />
  <line x1="325" y1="500" x2="325" y2="520" stroke="#888888" stroke-width="2" />
  
  <line x1="125" y1="580" x2="125" y2="620" stroke="#888888" stroke-width="2" />
  <line x1="325" y1="580" x2="325" y2="620" stroke="#888888" stroke-width="2" />
  
  <!-- 接続線：スケジュール管理→サブメニュー -->
  <line x1="550" y1="480" x2="550" y2="500" stroke="#888888" stroke-width="2" />
  <line x1="550" y1="500" x2="425" y2="500" stroke="#888888" stroke-width="2" />
  <line x1="425" y1="500" x2="425" y2="520" stroke="#888888" stroke-width="2" />
  
  <line x1="550" y1="500" x2="625" y2="500" stroke="#888888" stroke-width="2" />
  <line x1="625" y1="500" x2="625" y2="520" stroke="#888888" stroke-width="2" />
  
  <line x1="425" y1="580" x2="425" y2="620" stroke="#888888" stroke-width="2" />
  <line x1="625" y1="580" x2="625" y2="620" stroke="#888888" stroke-width="2" />
  
  <!-- 接続線：決済・会計→サブメニュー -->
  <line x1="850" y1="480" x2="850" y2="500" stroke="#888888" stroke-width="2" />
  <line x1="850" y1="500" x2="725" y2="500" stroke="#888888" stroke-width="2" />
  <line x1="725" y1="500" x2="725" y2="520" stroke="#888888" stroke-width="2" />
  
  <line x1="850" y1="500" x2="925" y2="500" stroke="#888888" stroke-width="2" />
  <line x1="925" y1="500" x2="925" y2="520" stroke="#888888" stroke-width="2" />
  
  <line x1="725" y1="580" x2="725" y2="620" stroke="#888888" stroke-width="2" />
  <line x1="925" y1="580" x2="925" y2="620" stroke="#888888" stroke-width="2" />
  
  <!-- 接続線：マーケティング→サブメニュー -->
  <line x1="250" y1="820" x2="250" y2="840" stroke="#888888" stroke-width="2" />
  <line x1="250" y1="840" x2="125" y2="840" stroke="#888888" stroke-width="2" />
  <line x1="125" y1="840" x2="125" y2="860" stroke="#888888" stroke-width="2" />
  
  <line x1="250" y1="840" x2="325" y2="840" stroke="#888888" stroke-width="2" />
  <line x1="325" y1="840" x2="325" y2="860" stroke="#888888" stroke-width="2" />
  
  <line x1="125" y1="920" x2="125" y2="960" stroke="#888888" stroke-width="2" />
  <line x1="325" y1="920" x2="325" y2="960" stroke="#888888" stroke-width="2" />
  
  <!-- 接続線：レポート・分析→サブメニュー -->
  <line x1="550" y1="820" x2="550" y2="840" stroke="#888888" stroke-width="2" />
  <line x1="550" y1="840" x2="425" y2="840" stroke="#888888" stroke-width="2" />
  <line x1="425" y1="840" x2="425" y2="860" stroke="#888888" stroke-width="2" />
  
  <line x1="550" y1="840" x2="625" y2="840" stroke="#888888" stroke-width="2" />
  <line x1="625" y1="840" x2="625" y2="860" stroke="#888888" stroke-width="2" />
  
  <line x1="425" y1="920" x2="425" y2="960" stroke="#888888" stroke-width="2" />
  <line x1="625" y1="920" x2="625" y2="960" stroke="#888888" stroke-width="2" />
  
  <!-- 接続線：物品・在庫管理→サブメニュー -->
  <line x1="850" y1="820" x2="850" y2="840" stroke="#888888" stroke-width="2" />
  <line x1="850" y1="840" x2="725" y2="840" stroke="#888888" stroke-width="2" />
  <line x1="725" y1="840" x2="725" y2="860" stroke="#888888" stroke-width="2" />
  
  <line x1="850" y1="840" x2="925" y2="840" stroke="#888888" stroke-width="2" />
  <line x1="925" y1="840" x2="925" y2="860" stroke="#888888" stroke-width="2" />
  
  <line x1="850" y1="920" x2="825" y2="920" stroke="#888888" stroke-width="2" />
  <line x1="825" y1="920" x2="825" y2="960" stroke="#888888" stroke-width="2" />
  
  <!-- 接続線：システム設定→サブメニュー -->
  <line x1="550" y1="1160" x2="550" y2="1180" stroke="#888888" stroke-width="2" />
  <line x1="550" y1="1180" x2="425" y2="1180" stroke="#888888" stroke-width="2" />
  <line x1="425" y1="1180" x2="425" y2="1200" stroke="#888888" stroke-width="2" />
  
  <line x1="550" y1="1180" x2="625" y2="1180" stroke="#888888" stroke-width="2" />
  <line x1="625" y1="1180" x2="625" y2="1200" stroke="#888888" stroke-width="2" />
  
  <line x1="550" y1="1180" x2="525" y2="1180" stroke="#888888" stroke-width="2" />
  <line x1="525" y1="1180" x2="525" y2="1300" stroke="#888888" stroke-width="2" />
  
  <!-- AI機能インジケーター -->
  <circle cx="650" y="960" r="10" fill="#FF5252" />
  <text x="650" y="964" font-family="Arial" font-size="12" text-anchor="middle" fill="white" font-weight="bold">AI</text>
  
  <circle cx="950" y="620" r="10" fill="#FF5252" />
  <text x="950" y="624" font-family="Arial" font-size="12" text-anchor="middle" fill="white" font-weight="bold">AI</text>
  
  <circle cx="160" y="960" r="10" fill="#FF5252" />
  <text x="160" y="964" font-family="Arial" font-size="12" text-anchor="middle" fill="white" font-weight="bold">AI</text>
  
  <circle cx="340" y="895" r="10" fill="#FF5252" />
  <text x="340" y="899" font-family="Arial" font-size="12" text-anchor="middle" fill="white" font-weight="bold">AI</text>
</svg> 